<svg xmlns="http://www.w3.org/2000/svg" viewBox="-30 -30 460 210"><g fill="#93921f"><path d="M370 23.9c2.3.9 3.6 3.2 2.8 5.2-.7 2-3.3 2.8-5.6 1.9-2.3-1-3.6-3.3-2.8-5.2.7-2 3.2-2.9 5.6-2"/><path d="M370.6 24.5c.9-2.4 5.2-3.9 9.8-1 4 2.5 12.5 8.4 14.6 25 2 16.5 3.2 24 3.2 24l-4 2.9c.4-5.8-2.4-33.3-7.4-40.7-6-8.8-11.8-10.6-15-8.6"/><path d="M353.9 28.2c-6.2 7.1-23.7 14.7-24.4 28a558.9 558.9 0 00-1.2 48c.3 12.7-3.4 23.4 0 31.4 2.4 5.7 9.7 1 15.7 1.2 8.2.2 18 .3 26.5.8 7.6.6 14.2 2.3 17.5-.1 3.2-2.4 2.7-27.4 1.8-36.1-1-10.2-.9-29.4.5-44.4 1-11.3-18.3-26.1-22.7-29-1.1-.7-3 .9-6.2 1.1-3.8.3-6.3-2.3-7.5-.9"/></g><g aria-label="sac" fill="#93921f" stroke-width="1.3"><path d="M176.4 129.8c-5.8 1.7-17.6-1.7-24.7 1.2-7.7 3.6 15 5.5 19.2 5.5 8.8 0 21-3.3 21-12.8.9-21.6-53-15-29.6-31.5 9.4-3 20.5-.4 22.7-1.2 11.4-4-10.6-6.3-15.2-6.3-9.2 0-20.1 3.4-20.1 13.7 0 18 34.2 10 34.2 25.1 0 2.8-3.3 6.3-7.5 6.3zM197.6 118.8c0 8.8 7 17.4 17.2 17.4 7.6 0 14.3-3.8 20.7-7 .5 1.4 2.3 5.2 4.7 5.2 3.7 0 3-7 3-8.4 0-17.9-4-41.6-28.4-41.6-3.2 0-13.6-.1-13.6 4.8 16 0 31.9.7 31.9 18.4-3.3 0-17.2-.8-20.3-.6-7.6.5-15.2 3.7-15.2 11.8zm7.4.9c0-.6.2-3.5.4-4.1 4-3.2 11.2-3.5 16-3.5 6.2 0 12.5 0 12.5 6.1 0 6.4-13 12.6-19.1 12.6-5.8 0-9.8-6.6-9.8-11.1zM252.8 111c0 21.7 7.7 24.5 29.5 24.5l11.3-.3c1.5-.6 2.6-3 2.6-4.7-3 0-18-1-21-1.4-13.2-1.9-14.5-7.8-14.5-18 0-7.4-.6-16.2 8.4-18.4 3-.8 17.3-1.6 20.4-2 0-.7.2-3.4 0-4.1-.6-.6-3.5-2-4.2-2l-8.5-.2c-17.3 0-24 9.5-24 26.7z"/></g><g aria-label="altero" fill="#c0be21" stroke-width="1.3"><path d="M1.6 61.3c0 8.8 7 17.4 17.1 17.4 7.7 0 14.3-3.8 20.8-7 .5 1.4 2.2 5.1 4.7 5.1 3.7 0 3-7 3-8.3 0-18-4-41.6-28.5-41.6-3.1 0-13.6-.2-13.6 4.8 16 0 32 .7 32 18.4-3.4 0-17.3-.9-20.3-.7C9 50 1.6 53.1 1.6 61.3zm7.3.8c0-.6.2-3.5.4-4 4.1-3.2 11.3-3.6 16-3.6 6.2 0 12.5.1 12.5 6.2 0 6.3-13 12.6-19 12.6-5.8 0-9.9-6.7-9.9-11.2zM55 72.4c-1.7 7.4 1 5.6 2 5.8 14.2 1.6 27.6 1.5 41 1.5 1.2-.8 1.6-4.2.9-5.6l-18.7-1.7c0-12.4 2-23.8 2-35.4.2-11.6 5.8-30.2-13.9-29.7-1.2.2-8-.5-7.9 1.8 2 7.3 14-1.6 13.8 12.3-.6 17.6-.2 32.7-2.6 50.8zM110 36.6c.3 13 1 25 2.7 36.4 4.3 4 6.6 6.4 27.8 6.4 2-.4 4.1-1.3 2.6-5.1-33.5.6-23.9-6.2-25-38.9 3.5 0 19.2-1 22.4-1.7 3-.3 3.8-.3 3.8-3.4-1.3-1.3-26.2-2-26.2-2-.7-5.8-.6-15.9-4.1-20.3-6.3 1.9.3 18.7-6.1 20.6-2.2 1.8-13.6-.7-12.4 3.3 0 5.3 10.2.9 14.4 4.7zM145.7 51.3c0 8.5 1.1 13 8.3 21.8 2.1 2.1 8.2 6 35.1 6 1.6 0 1-5-.8-5-9.7 0-35.3-.8-35.3-16.2 0-1.2 26.1 0 28-.4 4.9-.7 12-6 12-11.7 0-11.9-13.5-18.4-22.5-18.4a24.1 24.1 0 00-24.8 23.9zm6.2-2.7c-4.7-7.1 14-15.5 17.4-15.5 6.3 0 15.5 4.3 15.5 11.6 0 6-15.5 6-18.6 6-2.2-.3-13-.3-14.3-2zM199.5 77.4c.8 1.3 4.5 1.7 6 .9l2.1-35.7a21.4 21.4 0 0118.3-8.2c12 0 8.5 10.1 15.1 10.1 1.8-.2 3-2.8 3-4.3 0-10.8-7.1-13.7-18.3-13.7-7.5 0-12.8 1.4-18 5.9-1-3.2-4.3-9-6.8-3.3-3 10.1-1.6 18.6-1.6 29l.2 19.3zM248.5 53c0 14 4.3 25.2 20.7 25.2s30.5-12.2 30.5-28.5c0-14-9-23-23.4-23-6.2 0-15-.6-21.9 5.6-4.8 6.6-5.9 9.6-5.9 20.7zm5.8.7c0-15 5.7-21.6 21.8-21.6 10.6 0 17.9 8.4 17.9 18.6 0 12.7-10.5 18.6-24.4 20.2-11.8 0-15.8-8.6-15.3-17.2z"/></g></svg>
